<svg xmlns="http://www.w3.org/2000/svg" xmlns:xlink="http://www.w3.org/1999/xlink" viewBox="0 0 318.95 222.77"><defs><style>.cls-1{fill:#fff;}.cls-2{fill:#ccc;}.cls-3{fill:url(#linear-gradient);}.cls-4{fill:url(#linear-gradient-2);}.cls-5,.cls-6{fill:#999;}.cls-5{opacity:0.3;}</style><linearGradient id="linear-gradient" x1="36.64" y1="208.85" x2="55.11" y2="176.86" gradientUnits="userSpaceOnUse"><stop offset="0" stop-color="#fff"/><stop offset="0.44" stop-color="#fcfcfc"/><stop offset="0.76" stop-color="#f3f3f3"/><stop offset="1" stop-color="#e6e6e6"/></linearGradient><linearGradient id="linear-gradient-2" x1="201.45" y1="216.77" x2="201.45" y2="190.77" gradientUnits="userSpaceOnUse"><stop offset="0" stop-color="#fff"/><stop offset="0.19" stop-color="#f6f6f6"/><stop offset="0.6" stop-color="#eaeaea"/><stop offset="1" stop-color="#e6e6e6"/></linearGradient></defs><title>Asset 2</title><g id="Layer_2" data-name="Layer 2"><g id="Layer_1-2" data-name="Layer 1"><g id="Map1"><polygon class="cls-1" points="12.95 150.77 91.95 222.77 202.95 190.77 318.95 219.77 265.95 54.77 201.95 45.77 133.95 70.77 81.95 38.77 12.95 150.77"/><polygon class="cls-2" points="131.95 76.77 94.95 213.77 202.95 182.77 198.95 55.77 131.95 76.77"/><polygon class="cls-2" points="198.95 55.77 261.95 68.77 307.95 209.77 202.95 182.77 198.95 55.77"/><polygon class="cls-1" points="272.66 100.9 276.95 111.77 123.95 72.36 128.95 63.77 272.66 100.9"/><polygon class="cls-3" points="19.51 156.3 0 187.7 82.67 213.75 19.51 156.3"/><polygon class="cls-4" points="110.95 216.77 202.95 190.77 291.95 214.77 110.95 216.77"/><polygon class="cls-2" points="84.95 48.77 131.95 76.77 94.95 213.77 22.95 149.77 84.95 48.77"/><polygon class="cls-1" points="57.95 181.77 63.95 189.77 101.95 189.77 201.95 129.77 281.95 127.77 279.95 119.77 200.95 120.77 102.95 180.77 57.95 181.77"/><polygon class="cls-1" points="39.95 119.77 45.95 111.77 121.95 111.77 172.95 83.77 198.95 69.77 223.95 60.77 239.95 63.77 199.95 76.77 119.95 119.77 39.95 119.77"/><polygon class="cls-1" points="65.95 78.77 115.95 132.77 200.95 140.77 297.95 176.77 300.95 185.77 199.95 149.77 113.95 141.77 59.95 85.77 65.95 78.77"/><polygon class="cls-5" points="131.95 76.77 94.95 213.77 202.95 182.77 198.95 55.77 131.95 76.77"/><g id="Pin"><path id="Pin2" class="cls-6" d="M142,38.63a39,39,0,0,0-78,0,38.2,38.2,0,0,0,5.39,19.61A38.78,38.78,0,0,0,73.57,64h0l3.68,5.15,7.36,12.51,5.15,9.84,3.68,7.82,3.68,8.83,2.57,8.09,1.84,5.89.74,2.94.73,3.68.74-2.2.73-2.95.74-2.94.74-2.94,2.2-6.63L111,103.2,116.2,92l9.56-16.92,6.63-10.31,1.76-2.94A38.18,38.18,0,0,0,142,38.63Z"/><circle id="Pin_circle" data-name="Pin circle" class="cls-1" cx="102.95" cy="40.47" r="24.28"/></g></g></g></g></svg>